<?xml version="1.0" standalone="no"?>
<!DOCTYPE svg PUBLIC "-//W3C//DTD SVG 20010904//EN"
 "http://www.w3.org/TR/2001/REC-SVG-20010904/DTD/svg10.dtd">
<svg version="1.0" xmlns="http://www.w3.org/2000/svg"
 width="16.000000pt" height="16.000000pt" viewBox="0 0 16.000000 16.000000"
 preserveAspectRatio="xMidYMid meet">
<metadata>
Created by potrace 1.11, written by Peter Selinger 2001-2013
</metadata>
<g transform="translate(0.000000,16.000000) scale(0.001035,-0.001035)"
fill="#000000" stroke="none">
<path d="M9823 14033 c-48 -12 -128 -24 -178 -26 -49 -3 -108 -10 -130 -16
-62 -19 -120 -30 -255 -51 -69 -11 -138 -21 -155 -24 -16 -3 -88 -13 -160 -22
-71 -9 -139 -21 -150 -27 -11 -6 -36 -14 -55 -18 -96 -21 -155 -38 -158 -48
-2 -6 -11 -11 -19 -11 -9 0 -53 -18 -98 -40 -45 -22 -97 -43 -116 -46 -38 -7
-129 -53 -129 -65 0 -4 -16 -13 -35 -19 -19 -6 -37 -19 -40 -29 -3 -10 -26
-37 -50 -59 -25 -22 -50 -53 -57 -69 -7 -15 -18 -32 -24 -38 -7 -5 -17 -28
-24 -50 -7 -22 -25 -61 -41 -88 -16 -26 -29 -55 -30 -65 0 -14 -2 -13 -11 4
-11 23 -82 59 -137 70 -19 3 -48 19 -65 35 -17 16 -34 29 -38 29 -4 0 -22 13
-40 29 -18 16 -57 39 -85 51 -29 12 -53 26 -53 29 0 4 -18 15 -40 25 -22 10
-40 21 -40 26 0 11 -174 100 -195 100 -16 0 -93 29 -150 56 -35 17 -137 41
-248 59 -42 6 -85 19 -95 27 -9 8 -51 20 -92 27 -41 6 -136 23 -210 36 -74 14
-166 27 -205 31 -41 3 -92 16 -122 30 -36 16 -88 27 -165 35 -62 7 -125 18
-140 26 -15 7 -59 13 -100 13 -40 0 -120 4 -178 9 -242 22 -542 13 -620 -19
-14 -6 -55 -12 -90 -14 -36 -2 -94 -11 -130 -19 -36 -9 -121 -24 -190 -33
-112 -15 -135 -22 -221 -65 -53 -26 -99 -46 -101 -43 -3 2 -81 -34 -174 -81
-92 -47 -173 -85 -179 -85 -5 0 -26 -14 -45 -31 -19 -16 -48 -37 -65 -46 -16
-9 -32 -19 -35 -23 -3 -4 -21 -15 -40 -25 -19 -10 -37 -21 -40 -25 -3 -4 -29
-20 -59 -35 -29 -14 -63 -35 -75 -46 -11 -11 -31 -22 -43 -25 -13 -4 -23 -10
-23 -14 0 -5 -21 -21 -48 -36 -26 -15 -65 -46 -87 -69 -22 -23 -45 -44 -52
-46 -20 -7 -186 -157 -194 -175 -7 -17 -124 -112 -145 -118 -11 -3 -29 -14
-40 -24 -10 -10 -46 -33 -79 -51 -33 -19 -66 -42 -73 -52 -16 -23 -28 -35 -88
-84 -97 -81 -181 -165 -219 -222 -22 -32 -45 -64 -52 -71 -6 -6 -15 -21 -18
-32 -3 -11 -10 -20 -14 -20 -5 0 -14 -13 -21 -30 -7 -16 -16 -30 -21 -30 -18
0 -97 -90 -103 -117 -4 -17 -21 -38 -42 -52 -19 -14 -42 -38 -51 -55 -9 -17
-19 -33 -23 -36 -4 -3 -15 -21 -25 -40 -17 -34 -60 -80 -76 -80 -4 0 -21 -26
-36 -57 -41 -81 -116 -217 -123 -223 -4 -3 -19 -32 -34 -65 -15 -33 -30 -62
-35 -65 -4 -3 -30 -48 -57 -100 -27 -52 -52 -96 -56 -98 -4 -2 -16 -23 -27
-47 -10 -24 -28 -52 -40 -64 -11 -11 -55 -87 -96 -168 -69 -134 -95 -179 -140
-237 -8 -11 -22 -40 -31 -65 -9 -25 -22 -61 -30 -79 -8 -18 -14 -39 -14 -47 0
-8 -3 -15 -8 -15 -9 0 -47 -72 -66 -125 -8 -22 -24 -65 -36 -95 -12 -30 -27
-68 -34 -85 -6 -16 -20 -42 -29 -57 -10 -15 -25 -48 -32 -75 -20 -71 -38 -117
-52 -128 -18 -15 -73 -127 -73 -150 0 -11 -12 -45 -26 -75 -14 -30 -34 -81
-44 -112 -21 -64 -37 -96 -56 -116 -15 -14 -28 -54 -54 -162 -22 -91 -53 -201
-74 -256 -28 -78 -65 -316 -66 -434 0 -41 -7 -104 -16 -140 -16 -69 -23 -463
-10 -565 15 -117 36 -264 45 -320 6 -33 11 -145 12 -250 0 -104 5 -224 11
-265 6 -41 12 -131 14 -200 3 -78 10 -140 19 -166 9 -23 17 -72 19 -110 5 -90
33 -259 47 -285 6 -11 8 -27 5 -35 -8 -20 21 -148 49 -214 12 -30 28 -73 34
-95 7 -22 18 -56 26 -75 70 -181 110 -282 126 -318 11 -24 27 -61 35 -82 9
-22 20 -40 24 -40 9 0 110 -202 110 -219 0 -5 6 -16 13 -23 6 -8 21 -29 31
-48 10 -19 39 -69 62 -111 24 -42 44 -82 44 -89 0 -15 58 -119 77 -138 8 -8
21 -28 30 -45 9 -18 19 -34 22 -37 3 -3 15 -23 26 -45 11 -22 22 -42 25 -45 3
-3 18 -25 34 -49 37 -58 104 -129 136 -146 14 -7 62 -49 107 -94 49 -49 89
-81 102 -81 11 0 25 -8 30 -18 5 -10 26 -27 47 -38 20 -10 53 -34 73 -52 20
-17 45 -35 56 -38 11 -4 29 -17 40 -29 11 -12 42 -37 70 -56 57 -39 62 -43 93
-68 13 -11 62 -46 110 -78 48 -32 92 -63 99 -69 6 -6 25 -17 42 -24 17 -7 31
-16 31 -20 0 -4 11 -12 24 -18 31 -14 47 -27 156 -126 8 -7 26 -19 40 -26 14
-7 34 -21 45 -31 11 -9 38 -24 60 -32 39 -14 193 -81 227 -98 35 -18 164 -61
205 -68 23 -4 66 -20 94 -35 29 -15 72 -30 96 -33 24 -3 46 -10 49 -14 3 -5
18 -9 34 -9 58 0 149 -24 210 -55 18 -9 108 -15 303 -21 153 -4 280 -11 283
-15 3 -5 45 -9 94 -9 77 0 96 4 152 30 34 16 71 30 80 30 11 0 20 10 24 28 3
15 7 33 9 39 5 15 -33 53 -51 53 -7 0 -21 -8 -31 -18 -10 -10 -39 -28 -66 -41
-41 -20 -57 -22 -125 -17 -42 3 -180 10 -307 15 -296 13 -310 14 -371 38 -28
11 -82 26 -120 33 -38 7 -80 16 -94 20 -14 5 -43 11 -65 15 -22 4 -60 18 -85
33 -25 14 -65 29 -90 33 -84 13 -440 159 -460 188 -3 4 -15 14 -28 20 -30 16
-55 36 -103 83 -21 20 -57 47 -81 59 -24 12 -45 25 -48 28 -3 4 -32 24 -65 44
-33 21 -87 58 -120 83 -33 25 -73 53 -88 62 -16 9 -41 27 -55 40 -15 12 -51
37 -79 55 -29 17 -53 37 -53 42 0 6 -18 21 -40 34 -21 13 -51 35 -66 48 -15
12 -31 23 -35 23 -4 0 -19 11 -32 24 -13 13 -42 33 -63 44 -22 11 -72 51 -111
89 -40 37 -89 81 -109 98 -20 16 -55 54 -78 85 -22 30 -47 61 -54 68 -6 7 -12
20 -12 27 0 7 -11 26 -23 42 -13 15 -27 39 -30 53 -4 14 -20 39 -37 57 -16 18
-30 36 -30 40 0 5 -8 20 -17 33 -10 14 -26 47 -35 74 -10 27 -22 52 -27 55 -5
3 -16 23 -25 44 -9 22 -27 52 -41 69 -14 16 -25 34 -25 39 0 9 -52 121 -69
149 -5 8 -14 29 -21 46 -6 16 -22 42 -35 57 -14 14 -25 31 -25 38 0 6 -11 32
-24 58 -14 25 -41 89 -61 141 -21 52 -46 118 -58 145 -11 28 -21 59 -23 70 -5
33 -53 165 -64 175 -8 7 -34 131 -33 160 1 14 -3 32 -7 40 -12 22 -42 221 -46
300 -1 36 -10 82 -18 102 -12 27 -16 72 -17 159 0 67 -5 133 -11 148 -7 16
-12 134 -14 315 -1 190 -6 291 -13 295 -9 6 -38 183 -40 241 0 8 -5 69 -10
135 -10 119 -1 410 12 432 4 6 12 83 18 170 5 87 16 185 24 218 7 33 16 79 19
103 4 23 13 62 22 85 20 54 51 165 70 247 21 93 40 144 69 190 14 22 32 61 41
87 8 27 26 68 39 93 13 25 26 63 30 85 18 107 30 100 31 -19 0 -63 6 -107 16
-133 9 -21 20 -51 24 -68 4 -16 8 -32 9 -35 1 -3 7 -24 14 -47 6 -24 15 -43
19 -43 4 0 18 -17 32 -38 29 -43 117 -132 130 -132 5 0 37 -26 71 -57 33 -32
70 -62 82 -68 12 -5 33 -20 47 -32 14 -13 40 -28 57 -34 18 -6 33 -16 33 -22
0 -11 44 -36 155 -89 28 -12 54 -29 58 -35 4 -7 15 -13 23 -13 8 0 31 -10 52
-23 42 -26 223 -111 292 -136 25 -9 56 -24 70 -33 30 -20 122 -46 203 -59 33
-5 73 -16 90 -23 43 -20 135 -42 232 -56 44 -6 90 -18 102 -26 12 -8 42 -14
65 -15 24 0 63 -4 88 -9 25 -5 70 -14 100 -20 30 -6 71 -17 90 -25 47 -20 192
-55 225 -55 14 0 39 -7 54 -14 15 -8 63 -19 107 -25 111 -14 217 -35 232 -44
7 -5 63 -12 125 -17 128 -10 187 -19 203 -31 6 -5 40 -12 75 -15 35 -3 87 -12
114 -19 154 -40 230 -56 525 -106 30 -5 93 -14 139 -20 47 -6 94 -17 105 -25
14 -10 49 -14 114 -14 105 0 99 8 67 -79 -9 -24 -25 -55 -35 -69 -11 -14 -20
-30 -20 -37 0 -6 -8 -19 -18 -29 -11 -9 -31 -41 -47 -71 -15 -30 -31 -55 -36
-55 -4 0 -13 -18 -19 -39 -5 -21 -21 -46 -33 -54 -33 -21 -197 -354 -197 -399
0 -12 -6 -29 -14 -37 -7 -9 -23 -65 -35 -126 -12 -60 -33 -133 -46 -161 -14
-28 -25 -63 -25 -78 0 -15 -7 -40 -15 -56 -8 -16 -18 -68 -21 -117 -4 -48 -11
-93 -15 -99 -5 -6 -14 -83 -20 -170 -7 -87 -17 -170 -22 -184 -6 -14 -17 -70
-24 -125 -6 -55 -19 -138 -28 -185 -22 -114 -38 -379 -32 -517 3 -64 1 -113
-4 -113 -11 0 -10 -99 2 -122 9 -16 0 -119 -21 -243 -29 -169 -37 -564 -14
-655 6 -25 26 -87 43 -139 17 -51 30 -98 29 -105 -2 -12 14 -73 37 -141 13
-41 16 -49 55 -144 12 -30 24 -64 26 -75 9 -53 44 -167 69 -221 14 -33 36 -81
47 -107 12 -27 25 -48 30 -48 4 0 17 -19 29 -42 55 -107 126 -179 191 -193 15
-4 28 -10 29 -13 0 -4 2 -18 3 -30 2 -13 7 -27 13 -30 6 -4 18 -23 28 -42 10
-19 21 -37 25 -40 5 -3 30 -50 57 -105 100 -205 185 -365 193 -365 4 0 13 -13
20 -30 7 -16 15 -30 19 -30 4 0 22 -26 41 -58 19 -31 50 -75 70 -98 20 -22 41
-47 46 -55 5 -8 33 -34 62 -58 28 -23 52 -47 52 -53 0 -11 33 -39 94 -81 61
-41 85 -60 109 -86 47 -51 68 -71 77 -71 5 0 15 -6 22 -13 7 -6 33 -25 58 -41
25 -16 57 -41 72 -55 15 -14 42 -37 59 -51 17 -14 37 -30 43 -36 15 -14 142
-79 196 -100 25 -10 73 -30 106 -46 34 -15 66 -28 72 -28 5 0 32 -7 58 -14 27
-8 76 -23 109 -32 33 -9 71 -23 85 -30 53 -26 119 -43 215 -54 55 -7 107 -18
115 -25 8 -7 47 -15 85 -18 39 -2 122 -9 185 -15 347 -34 1020 -52 1145 -32
39 7 126 15 195 19 69 4 134 12 145 18 11 6 56 16 100 22 94 13 266 67 292 90
37 34 79 59 111 66 17 3 32 11 32 16 0 5 19 21 43 36 23 15 44 30 47 34 3 3
32 20 65 39 33 19 62 37 65 41 3 5 23 15 44 24 21 9 43 21 50 26 18 16 119 77
153 92 17 9 41 25 52 36 12 12 29 21 39 21 23 1 94 33 113 52 8 9 35 26 59 38
24 12 49 27 57 34 27 24 40 32 87 54 27 13 58 34 68 48 11 13 26 24 33 24 8 0
17 9 20 20 3 11 10 20 16 20 9 0 175 163 263 258 27 29 54 67 61 85 6 18 22
55 35 82 24 50 38 112 66 280 8 50 19 104 25 120 14 39 37 125 54 198 21 92
19 89 62 72 88 -35 306 -50 353 -25 27 14 33 20 91 73 23 20 45 37 50 37 4 0
13 16 20 35 7 19 16 35 20 35 12 0 54 133 64 202 7 52 27 77 48 60 16 -13 587
-15 620 -3 12 5 41 15 65 22 23 7 42 16 42 21 0 5 17 16 38 25 20 8 44 22 52
29 32 31 95 76 127 91 18 8 33 19 33 24 0 5 13 9 29 9 16 0 37 7 46 17 9 9 47
22 83 29 93 17 206 67 277 122 33 25 62 49 65 53 3 3 20 15 38 26 18 11 54 40
80 65 27 25 73 58 103 73 58 30 94 57 214 163 11 10 38 28 60 42 22 13 56 37
76 54 19 17 46 40 60 52 13 11 43 43 65 70 74 87 81 94 97 94 16 0 107 83 107
99 0 5 12 22 28 39 53 58 71 82 91 119 11 21 43 62 71 92 27 29 50 57 50 61 0
4 9 18 21 31 23 26 82 126 122 204 14 28 35 61 46 75 12 13 32 40 44 60 11 19
27 41 34 48 7 7 13 17 13 21 0 4 11 21 25 37 14 16 46 70 72 119 25 50 51 96
57 104 20 26 36 86 42 161 3 41 12 91 19 111 8 21 17 103 21 190 4 85 11 159
16 166 5 6 11 51 14 100 4 77 14 145 63 423 5 30 23 111 39 180 16 69 33 152
37 185 4 33 10 65 15 70 12 16 20 513 10 570 -12 61 -12 361 0 424 5 27 5 66
-1 94 -5 27 -11 97 -13 156 -3 59 -8 114 -10 122 -3 8 -10 57 -16 109 -14 131
-18 158 -29 215 -6 28 -17 87 -26 133 -9 45 -19 101 -21 125 -6 53 -21 123
-46 209 -10 36 -20 77 -20 90 -1 33 -46 165 -74 220 -9 16 -24 61 -34 99 -10
38 -22 75 -28 82 -5 6 -24 55 -41 107 -18 52 -37 100 -43 107 -5 7 -8 19 -5
26 8 21 -51 217 -84 279 -10 20 -19 48 -19 61 0 13 -9 34 -20 46 -10 13 -22
44 -26 69 -3 26 -12 58 -19 72 -19 37 -38 101 -32 107 3 2 -8 30 -23 62 -16
31 -32 70 -36 87 -7 30 -52 125 -63 134 -8 6 -35 73 -52 128 -7 24 -21 52 -31
64 -10 12 -18 25 -18 29 0 4 -6 14 -13 21 -17 17 -61 95 -104 183 -54 111 -67
135 -74 135 -4 0 -13 15 -19 34 -6 19 -24 51 -40 72 -17 20 -28 40 -25 44 2 4
-9 19 -25 33 -16 15 -32 39 -36 54 -7 29 -46 93 -77 128 -10 11 -27 37 -38 57
-10 20 -31 49 -45 65 -14 15 -31 35 -38 44 -6 8 -27 26 -46 40 -19 13 -68 57
-109 97 -40 39 -77 72 -82 72 -4 0 -14 6 -21 14 -8 7 -30 21 -48 31 -19 10
-48 30 -65 46 -121 115 -203 197 -215 214 -8 11 -32 34 -52 52 -20 17 -34 34
-31 37 4 3 1 6 -5 6 -6 0 -25 14 -42 30 -17 17 -55 44 -83 60 -29 16 -65 41
-81 55 -16 14 -46 30 -67 35 -21 6 -44 17 -52 24 -7 7 -29 21 -47 31 -19 10
-56 33 -81 51 -26 19 -52 34 -58 34 -17 0 -91 39 -91 48 0 5 -36 27 -79 50
-44 24 -97 58 -118 77 -21 19 -85 58 -143 87 -58 29 -107 55 -110 59 -12 16
-147 69 -177 69 -22 0 -186 51 -220 68 -10 5 -45 17 -78 27 -60 17 -120 45
-205 94 -53 30 -99 49 -155 62 -22 4 -58 15 -80 23 -22 8 -49 15 -60 16 -24 0
-110 27 -147 46 -14 8 -39 14 -54 14 -15 0 -41 4 -58 9 -64 20 -168 31 -366
41 -374 18 -420 18 -517 -7z m-1655 -3019 c23 -8 47 -14 52 -14 5 0 26 -11 46
-25 20 -14 43 -25 50 -25 21 0 419 -188 449 -212 6 -4 48 -32 95 -62 47 -30
93 -61 102 -69 9 -9 27 -21 39 -28 13 -6 32 -20 43 -30 11 -11 24 -19 29 -19
12 0 112 -106 145 -155 15 -22 30 -42 33 -45 4 -3 9 -14 13 -25 3 -11 18 -33
32 -49 41 -44 94 -115 94 -126 0 -6 9 -27 20 -47 26 -49 25 -63 -5 -128 -19
-40 -34 -57 -63 -70 -20 -10 -39 -21 -42 -25 -12 -18 -160 -78 -220 -89 -36
-7 -81 -16 -100 -21 -199 -49 -368 -55 -965 -36 -489 16 -621 23 -640 35 -5 3
-12 6 -15 7 -3 0 -12 3 -20 7 -8 3 -26 8 -40 10 -128 27 -218 60 -290 107 -8
6 -27 14 -42 20 -15 5 -35 21 -44 35 -15 23 -15 31 -4 66 8 22 24 51 37 65 13
14 23 33 23 42 0 10 9 25 20 34 11 10 34 42 51 73 17 30 34 55 39 55 4 0 13
13 20 29 6 16 30 47 53 69 23 22 52 53 64 69 12 15 36 44 53 63 16 19 30 38
30 42 0 4 9 9 19 13 11 3 22 14 26 24 3 9 21 34 40 55 19 21 35 42 35 47 0 4
9 11 21 14 11 4 33 20 50 36 16 16 41 36 54 45 13 9 27 24 30 35 4 10 13 19
21 19 17 0 69 34 100 66 26 27 49 39 110 60 27 9 56 22 64 29 18 16 93 42 135
47 43 5 103 -2 153 -18z m6353 -704 c-1 -14 7 -45 18 -70 41 -98 82 -207 86
-233 3 -15 17 -53 31 -85 15 -31 32 -75 40 -97 7 -22 21 -60 30 -85 9 -25 18
-61 20 -80 3 -19 13 -64 23 -100 26 -91 41 -160 43 -195 0 -16 8 -59 16 -95
18 -84 33 -166 37 -211 1 -20 8 -60 14 -90 23 -119 45 -366 46 -509 0 -41 -2
-156 -3 -255 -1 -101 2 -204 8 -235 14 -72 -2 -495 -24 -600 -8 -41 -22 -109
-30 -150 -9 -41 -16 -85 -16 -98 0 -13 -6 -30 -14 -37 -8 -8 -17 -43 -20 -77
-9 -88 -26 -187 -37 -226 -6 -18 -15 -89 -19 -157 -5 -69 -13 -133 -18 -142
-5 -10 -13 -90 -17 -177 -4 -101 -12 -167 -20 -180 -7 -12 -15 -59 -19 -105
-5 -75 -11 -96 -53 -179 -27 -52 -53 -97 -60 -99 -7 -3 -17 -20 -23 -39 -6
-19 -15 -34 -20 -34 -4 0 -13 -13 -20 -30 -7 -16 -16 -30 -20 -30 -3 0 -17
-22 -30 -49 -12 -27 -31 -52 -41 -54 -11 -3 -28 -26 -38 -50 -21 -49 -109
-205 -126 -223 -5 -7 -19 -24 -30 -40 -11 -15 -35 -41 -54 -58 -18 -17 -44
-52 -57 -78 -13 -26 -34 -58 -46 -71 -13 -14 -39 -46 -58 -73 -43 -60 -65 -80
-107 -96 -18 -7 -33 -15 -33 -18 0 -4 -17 -25 -37 -47 -127 -136 -169 -174
-225 -202 -34 -17 -68 -48 -68 -61 0 -6 -6 -10 -14 -10 -7 0 -31 -16 -52 -36
-22 -19 -52 -45 -67 -57 -16 -12 -34 -27 -41 -33 -6 -6 -28 -17 -49 -23 -20
-7 -37 -16 -37 -21 0 -5 -9 -12 -21 -15 -11 -4 -25 -17 -31 -30 -6 -13 -27
-32 -47 -41 -19 -9 -47 -28 -61 -40 -40 -38 -130 -105 -130 -98 0 4 -7 1 -15
-6 -29 -24 -114 -59 -162 -66 -26 -4 -67 -15 -91 -25 -24 -11 -52 -19 -61 -19
-10 0 -31 -11 -46 -24 -16 -14 -47 -34 -69 -46 -23 -11 -57 -35 -77 -53 -20
-18 -55 -41 -78 -51 -22 -11 -41 -23 -41 -28 0 -5 -4 -6 -10 -3 -5 3 -22 -1
-38 -9 -23 -12 -80 -15 -298 -15 -148 0 -277 3 -287 6 -15 4 -17 11 -12 31 12
46 25 151 35 282 5 69 14 148 19 175 5 28 10 93 11 145 0 52 5 127 9 165 18
140 16 452 -3 565 -10 58 -20 123 -22 145 -3 22 -9 51 -14 65 -4 14 -18 57
-29 95 -22 76 -20 96 24 175 25 45 35 270 14 296 -8 9 -14 33 -15 53 -1 20 -6
56 -12 81 -6 25 -13 77 -16 115 -12 129 -24 189 -56 275 -18 47 -42 137 -54
200 -13 63 -28 125 -34 137 -7 12 -14 62 -16 110 -2 48 -11 135 -19 193 -9 58
-18 132 -21 165 -3 33 -12 83 -20 110 -14 48 -31 143 -28 157 1 3 -7 33 -17
65 -11 32 -24 84 -30 116 -6 31 -15 65 -20 76 -6 10 -12 34 -14 54 -4 38 -22
64 -123 172 -36 39 -70 80 -77 92 -7 12 -31 48 -53 80 -23 32 -44 69 -48 81
-8 24 -12 23 79 27 52 3 141 23 211 49 23 8 77 18 120 22 50 4 105 17 149 34
39 16 86 31 105 35 19 4 59 20 87 36 29 16 59 29 66 29 7 0 50 18 96 40 45 22
90 40 98 40 9 0 46 14 82 31 77 37 98 46 206 89 44 18 103 42 130 55 28 12 91
35 140 50 124 37 230 83 266 114 16 14 55 39 87 54 127 63 263 134 278 146 7
5 88 49 180 96 93 48 171 91 174 95 3 5 25 16 50 26 42 17 52 24 103 68 12 10
40 30 62 44 22 14 56 42 77 61 20 20 63 51 95 70 60 36 185 156 208 201 7 14
25 39 39 55 15 17 36 45 47 63 11 17 24 32 28 32 4 0 17 22 29 48 12 27 37 66
55 88 48 58 57 86 57 182 0 48 3 112 7 142 6 52 7 53 16 25 5 -16 8 -41 8 -55z
m-7710 -402 c13 -29 37 -70 54 -92 l30 -38 -1 -174 c-1 -112 -7 -190 -15 -219
-16 -53 4 -50 -250 -34 -164 10 -173 12 -220 41 -59 36 -63 49 -56 179 4 83 9
106 31 144 15 25 31 45 37 45 5 0 29 20 52 45 24 25 49 45 56 45 6 0 27 7 47
15 19 8 37 14 41 14 3 -1 9 3 12 8 3 5 25 15 48 21 23 7 48 18 55 26 12 12 34
23 49 25 3 1 16 -23 30 -51z m2858 34 c3 -5 22 -17 41 -27 19 -10 37 -21 40
-25 7 -11 96 -50 113 -50 15 0 68 -39 54 -40 -4 0 0 -16 8 -36 16 -40 20 -111
6 -133 -6 -9 -14 -10 -27 -3 -11 5 -75 12 -144 16 -69 4 -129 11 -134 16 -6 6
-18 10 -28 10 -10 0 -18 3 -19 8 0 4 -2 30 -4 57 -2 28 -8 90 -12 139 l-8 88
54 -5 c30 -3 57 -10 60 -15z m-1411 -792 c76 -7 119 -15 129 -25 8 -8 21 -15
29 -15 24 0 117 -50 139 -75 22 -25 86 -55 117 -55 34 0 98 -42 98 -63 0 -28
-22 -97 -30 -97 -4 0 -14 -15 -21 -32 -7 -18 -26 -46 -41 -61 -15 -16 -28 -33
-28 -38 0 -5 -35 -44 -78 -86 -43 -43 -84 -93 -91 -110 -16 -38 -93 -113 -118
-114 -86 -4 -351 4 -401 13 -48 8 -67 16 -80 34 -9 14 -27 37 -40 52 -13 15
-37 51 -55 80 -17 29 -40 55 -50 58 -10 3 -28 16 -41 29 -13 13 -42 33 -65 44
-22 12 -41 25 -41 29 0 5 5 35 11 68 12 67 35 109 91 166 21 21 38 42 38 46 1
26 85 92 190 149 30 16 176 17 338 3z m2121 -129 c3 -4 20 -16 38 -24 29 -15
32 -22 38 -82 6 -55 5 -69 -10 -85 -10 -11 -23 -20 -28 -20 -6 0 -39 -13 -74
-30 -71 -34 -89 -36 -117 -15 -11 8 -30 15 -43 15 -64 0 -87 210 -29 253 14
10 218 0 225 -12z m-4289 -46 c14 -7 39 -16 57 -19 25 -6 36 -17 53 -53 23
-49 22 -58 -20 -183 -5 -14 -11 -37 -14 -52 -7 -31 -27 -35 -80 -18 -35 10
-137 36 -208 52 -36 8 -49 16 -56 37 -12 31 -12 61 0 61 4 0 8 7 8 15 0 28 23
65 41 65 32 0 51 30 44 67 -3 18 -4 37 -1 41 7 12 148 1 176 -13z m4233 -564
c4 -4 1 -27 -8 -50 -8 -24 -15 -53 -15 -65 0 -12 -9 -39 -19 -60 -11 -21 -23
-52 -27 -69 -7 -33 -32 -88 -43 -97 -9 -7 -61 -94 -91 -150 -12 -25 -36 -58
-52 -74 -15 -15 -28 -32 -28 -36 0 -4 -22 -29 -49 -56 -26 -27 -53 -59 -60
-71 -6 -13 -19 -23 -28 -23 -8 0 -25 -11 -37 -24 -24 -27 -112 -96 -124 -96
-4 0 -23 -14 -42 -31 -19 -17 -49 -37 -67 -45 -69 -30 -144 -94 -193 -164 -8
-12 -32 -29 -52 -37 -21 -8 -38 -19 -38 -23 0 -5 -9 -12 -20 -15 -11 -4 -32
-17 -48 -29 -15 -13 -47 -31 -72 -39 -58 -20 -107 -45 -145 -73 -16 -12 -40
-25 -52 -29 -13 -3 -23 -10 -23 -14 0 -10 -29 -22 -110 -45 -30 -9 -71 -23
-90 -30 -33 -13 -131 -33 -195 -40 -17 -1 -39 -7 -50 -13 -11 -6 -41 -13 -68
-16 -26 -4 -60 -13 -75 -21 -58 -30 -354 -14 -522 29 -30 7 -77 17 -105 21
-27 4 -52 10 -55 14 -8 11 -131 71 -185 90 -117 41 -161 61 -195 88 -19 16
-55 39 -78 51 -60 30 -170 108 -234 164 -29 26 -69 59 -88 74 -19 16 -57 49
-84 76 -27 26 -53 47 -57 47 -4 0 -10 11 -13 25 -3 13 -24 42 -45 63 -21 21
-46 53 -56 71 -19 37 -20 39 -64 92 -16 19 -33 47 -36 62 -4 15 -11 27 -16 27
-5 0 -9 5 -9 12 0 13 -79 131 -92 136 -4 2 -8 12 -8 22 0 10 -6 25 -13 32 -7
7 -21 33 -31 58 -10 25 -23 52 -30 60 -7 8 -24 41 -37 73 -23 58 -23 59 -4 70
32 19 57 25 112 26 28 1 62 5 75 10 32 11 357 -4 371 -18 6 -6 18 -11 26 -11
9 0 41 -13 71 -30 30 -16 66 -29 78 -30 33 0 72 -22 148 -82 23 -18 50 -39 60
-46 26 -17 164 -82 174 -82 5 0 28 -18 52 -40 42 -40 140 -93 195 -106 15 -4
37 -13 48 -20 11 -8 32 -14 48 -14 16 0 37 -4 47 -10 25 -13 421 -13 495 1 33
6 107 12 165 13 119 3 221 33 278 82 9 8 21 14 26 13 5 0 12 4 15 9 3 5 38 27
76 49 115 65 119 68 130 80 14 17 175 103 193 103 8 0 35 11 61 24 25 13 74
38 108 55 36 18 84 34 115 37 29 3 65 10 79 15 14 6 64 17 110 25 46 8 98 17
114 20 17 3 53 9 80 14 56 10 416 2 428 -9z m202 -61 c22 -11 45 -20 52 -20 7
0 39 -13 70 -30 31 -16 61 -30 68 -30 7 0 50 -26 96 -57 109 -73 479 -442 479
-476 0 -13 7 -32 15 -43 8 -10 15 -29 15 -40 0 -12 9 -49 20 -83 11 -34 19
-65 19 -69 -1 -4 0 -11 1 -17 3 -14 5 -23 14 -80 4 -27 14 -69 22 -92 7 -23
16 -72 18 -110 3 -37 8 -77 11 -88 9 -33 26 -185 30 -268 1 -43 10 -97 18
-120 14 -38 32 -123 42 -194 2 -15 21 -77 43 -138 21 -60 42 -137 45 -170 17
-162 28 -242 37 -265 5 -14 10 -38 12 -55 2 -16 8 -29 13 -28 6 1 8 -38 4
-110 -7 -108 -30 -202 -58 -230 -6 -6 -11 -17 -11 -25 0 -25 -121 -133 -176
-157 -29 -13 -59 -28 -66 -34 -83 -71 -154 -108 -222 -117 -78 -10 -141 -25
-186 -44 -25 -10 -71 -26 -102 -35 -31 -9 -58 -21 -60 -26 -2 -5 -21 -11 -43
-14 -65 -8 -136 -22 -200 -40 -33 -10 -85 -19 -115 -20 -66 -3 -188 -24 -212
-36 -10 -5 -39 -11 -65 -14 -26 -2 -64 -9 -83 -16 -19 -6 -51 -15 -70 -19 -19
-5 -66 -16 -105 -25 -38 -9 -86 -18 -105 -21 -19 -2 -71 -12 -115 -20 -44 -9
-132 -18 -195 -19 -63 -2 -142 -8 -175 -15 -64 -13 -537 -22 -900 -18 -115 2
-313 1 -440 -1 -296 -6 -314 -5 -865 14 -275 9 -477 20 -495 26 -16 7 -95 15
-175 20 -302 18 -385 25 -396 31 -5 4 -77 12 -160 17 -82 6 -176 18 -209 25
-33 8 -105 22 -160 31 -55 9 -125 23 -155 31 -30 9 -83 19 -117 24 -96 14
-171 36 -212 63 -20 13 -47 28 -61 32 -14 4 -55 25 -91 46 -36 22 -70 39 -76
39 -15 0 -114 45 -136 62 -20 15 -24 37 -33 198 -8 136 21 508 42 541 4 8 14
59 20 114 7 55 17 118 22 140 6 22 16 105 22 185 6 80 15 149 19 155 5 5 12
50 15 99 4 49 14 102 22 117 8 16 14 43 14 62 0 19 8 45 19 58 17 22 50 146
66 246 4 23 13 47 21 54 8 6 14 24 14 38 0 15 22 72 50 127 27 54 50 102 50
106 0 11 68 116 78 120 4 1 36 53 70 115 35 61 69 117 77 123 8 7 15 18 15 25
0 18 93 115 111 115 16 0 47 24 117 87 48 44 154 101 239 128 66 21 196 39
424 59 l56 5 27 -42 c16 -23 30 -50 32 -60 2 -11 16 -40 31 -65 15 -26 40 -74
56 -107 16 -33 31 -62 35 -65 13 -9 62 -90 56 -90 -4 0 0 -8 8 -17 9 -10 25
-36 36 -58 17 -34 49 -80 90 -130 5 -6 17 -24 28 -40 10 -17 36 -52 56 -78 21
-27 38 -53 38 -59 0 -6 8 -18 19 -27 10 -9 44 -38 77 -66 32 -27 68 -60 80
-72 12 -13 25 -23 29 -23 5 0 31 -21 60 -47 117 -108 135 -123 146 -123 6 0
22 -9 36 -20 14 -11 32 -20 40 -20 8 0 21 -7 29 -15 9 -8 24 -15 35 -15 10 0
19 -6 19 -12 1 -20 45 -47 112 -69 34 -11 72 -26 85 -34 12 -8 27 -15 32 -15
16 0 145 -61 163 -77 10 -9 66 -24 125 -35 59 -10 112 -23 117 -29 6 -5 29 -9
52 -9 23 0 66 -5 95 -10 30 -6 117 -11 195 -12 111 0 147 3 172 16 17 9 57 20
89 26 90 14 255 50 288 61 17 6 54 16 83 24 56 13 262 113 262 127 0 4 7 8 15
8 30 0 235 112 255 138 3 4 24 16 47 26 24 10 45 27 48 37 4 11 9 19 13 19 4
0 36 27 70 61 35 33 79 67 98 75 19 8 45 24 59 35 13 12 32 27 43 33 48 27
130 86 160 115 18 17 36 31 40 31 4 0 15 12 24 28 9 15 41 52 70 82 53 54 148
183 148 200 0 4 4 10 8 12 12 5 99 171 123 233 29 79 34 96 56 208 5 26 8 28
37 23 18 -3 50 -15 71 -26z m410 -90 c3 -6 -1 -7 -9 -4 -18 7 -21 14 -7 14 6
0 13 -4 16 -10z m708 -2932 c9 -24 18 -65 21 -93 3 -27 14 -99 24 -160 17 -97
18 -134 11 -315 -15 -363 -26 -524 -38 -553 -6 -16 -11 -79 -11 -142 0 -65 -4
-116 -10 -120 -5 -3 -10 -23 -10 -43 0 -20 -10 -71 -21 -112 -11 -41 -25 -93
-31 -115 -6 -22 -15 -44 -19 -49 -5 -6 -9 -19 -9 -31 0 -26 -45 -151 -67 -185
-24 -36 -72 -77 -119 -100 -45 -22 -64 -24 -108 -11 -17 6 -66 14 -108 20 -43
6 -86 15 -95 20 -10 6 -45 18 -78 27 -79 23 -204 80 -224 102 -19 20 -85 52
-108 52 -23 0 -135 37 -207 67 -53 23 -67 25 -130 18 -39 -4 -124 -9 -190 -11
-65 -1 -130 -7 -145 -12 -25 -10 -118 -21 -208 -26 -23 -2 -65 -15 -93 -29
-29 -15 -61 -27 -71 -27 -11 0 -42 -11 -70 -25 -27 -14 -55 -25 -62 -24 -27 3
-46 -2 -62 -17 -8 -9 -39 -25 -68 -36 -87 -33 -160 -59 -192 -68 -61 -18 -120
-42 -126 -51 -9 -14 -164 -67 -224 -76 -67 -11 -595 -3 -617 8 -9 5 -76 12
-150 15 -82 4 -144 12 -161 21 -16 8 -75 16 -145 19 -64 3 -137 12 -162 19
-25 7 -67 16 -95 20 -27 3 -61 10 -75 14 -14 5 -56 14 -95 21 -38 7 -76 17
-82 22 -16 12 -235 57 -280 58 -18 0 -52 9 -75 19 -24 10 -72 25 -108 31 -88
17 -681 25 -710 10 -11 -6 -53 -11 -94 -11 -47 0 -81 -6 -93 -14 -10 -8 -26
-15 -37 -15 -19 0 -30 -3 -216 -61 -100 -32 -209 -75 -220 -88 -3 -4 -18 -12
-33 -19 -15 -6 -30 -19 -33 -27 -4 -8 -16 -15 -28 -15 -12 0 -31 -7 -42 -15
-13 -10 -44 -14 -97 -15 -117 0 -135 14 -218 165 -12 22 -25 42 -28 45 -4 3
-15 23 -24 45 -10 22 -28 60 -41 85 -14 25 -27 63 -31 85 -4 22 -14 53 -22 68
-7 15 -11 32 -8 36 3 5 -9 42 -26 83 -41 96 -68 175 -74 213 -5 36 -15 71 -50
185 -54 176 -54 171 -50 420 2 134 8 247 14 263 6 16 11 50 11 77 0 27 4 51 9
54 4 3 11 37 13 76 6 79 10 89 34 69 15 -12 59 -31 109 -46 11 -4 26 -13 33
-20 7 -7 20 -13 28 -13 8 0 14 -3 14 -8 0 -4 15 -15 32 -23 204 -98 216 -102
347 -118 46 -6 89 -15 96 -21 13 -10 149 -36 250 -46 28 -3 64 -12 80 -19 17
-7 89 -16 160 -20 72 -4 162 -13 200 -21 39 -8 111 -14 160 -14 50 0 95 -4
100 -9 6 -5 76 -11 156 -13 86 -2 152 -8 160 -14 9 -7 175 -16 484 -24 284 -8
475 -17 483 -23 8 -6 60 -8 145 -3 168 8 452 12 727 8 365 -4 841 5 905 18 33
6 114 13 180 15 66 2 143 9 170 15 28 7 77 16 110 20 54 7 110 20 230 51 22 6
83 19 135 29 52 10 115 24 140 30 96 24 132 30 153 25 12 -3 58 4 102 16 44
12 100 25 125 29 55 10 128 29 155 40 11 5 38 14 60 21 22 6 67 22 101 35 33
12 80 25 105 28 138 19 158 26 246 84 89 59 125 81 169 102 22 11 56 36 75 54
19 19 37 35 40 35 4 1 13 -18 22 -41z m-1221 -1847 c10 -12 30 -21 44 -21 13
0 50 -9 81 -20 32 -11 66 -20 78 -20 11 0 34 -11 50 -24 l30 -24 -24 -26 c-14
-15 -41 -31 -62 -37 -34 -11 -63 -30 -111 -73 -10 -9 -22 -16 -28 -16 -5 0
-19 -9 -29 -19 -32 -32 -64 -49 -128 -70 -33 -11 -78 -28 -99 -39 -33 -17 -78
-28 -144 -37 -8 -2 -76 -15 -150 -30 -173 -36 -163 -34 -245 -46 -38 -5 -90
-16 -115 -23 -25 -8 -73 -22 -107 -32 -34 -9 -74 -28 -89 -41 -15 -13 -37 -23
-48 -23 -12 0 -31 -7 -43 -15 -29 -21 -101 -43 -157 -50 -28 -4 -97 -29 -165
-62 -170 -81 -353 -143 -428 -143 -23 0 -62 6 -85 14 -24 8 -95 17 -158 20
-63 3 -140 10 -170 15 -215 39 -295 51 -375 58 -38 3 -75 9 -80 14 -6 4 -31
11 -55 15 -25 3 -83 28 -130 54 -91 52 -150 76 -218 91 -24 5 -62 15 -86 23
-23 8 -82 19 -132 25 -49 6 -123 18 -164 27 -41 8 -113 17 -160 20 -47 3 -110
12 -140 20 -105 30 -115 32 -175 39 -69 7 -145 24 -160 35 -5 4 -44 15 -85 24
-174 38 -218 49 -276 67 -34 10 -70 19 -80 19 -20 0 -214 91 -214 101 0 4 12
9 28 12 41 8 113 28 152 42 46 17 131 34 205 41 33 3 67 10 75 14 9 5 121 8
250 9 296 0 459 -15 555 -53 22 -8 49 -15 61 -16 39 0 259 -47 282 -59 29 -16
134 -40 237 -55 44 -6 86 -15 94 -20 8 -5 79 -13 158 -18 90 -5 153 -14 166
-22 14 -9 72 -16 161 -20 77 -4 145 -11 150 -15 14 -12 585 -18 650 -8 66 10
191 53 246 84 25 14 65 31 90 38 25 7 68 22 95 33 28 11 66 26 85 32 19 7 60
23 90 35 156 65 183 75 201 75 11 0 43 12 71 26 29 15 70 28 93 29 93 5 191
18 209 27 10 6 69 10 130 9 61 0 125 4 141 9 48 15 134 5 157 -19z m444 -186
c10 -8 27 -15 37 -15 14 0 17 -5 11 -22 -4 -13 -13 -50 -21 -83 -27 -115 -39
-160 -50 -185 -6 -14 -18 -70 -27 -125 -9 -55 -21 -126 -26 -157 -23 -136
-151 -308 -364 -490 -22 -18 -57 -50 -80 -70 -22 -21 -45 -38 -51 -38 -6 0
-30 -14 -53 -31 -48 -35 -109 -69 -234 -130 -49 -23 -88 -45 -88 -50 0 -4 -15
-12 -34 -19 -18 -6 -45 -24 -60 -40 -14 -17 -35 -30 -45 -30 -11 0 -26 -6 -33
-14 -8 -7 -34 -24 -59 -36 -24 -12 -48 -29 -52 -36 -4 -8 -16 -14 -27 -14 -10
0 -25 -7 -34 -15 -8 -8 -19 -15 -25 -15 -6 0 -19 -8 -29 -18 -10 -9 -39 -28
-65 -42 -26 -13 -47 -28 -47 -32 0 -3 -16 -12 -35 -18 -19 -6 -49 -25 -67 -42
-46 -43 -121 -74 -208 -84 -41 -5 -162 -31 -198 -43 -18 -5 -73 -10 -121 -10
-48 1 -107 -5 -132 -13 -90 -27 -819 -12 -1174 23 -60 7 -141 15 -180 19 -38
3 -83 12 -99 19 -16 6 -63 16 -105 21 -107 14 -189 38 -272 80 -9 5 -34 12
-55 15 -22 4 -50 10 -64 15 -14 5 -52 16 -85 26 -33 10 -71 26 -84 36 -13 10
-30 18 -38 18 -19 0 -171 76 -190 95 -8 8 -18 15 -22 15 -4 0 -35 26 -68 58
-33 32 -79 66 -102 77 -23 10 -41 21 -41 25 0 4 -13 13 -30 20 -16 7 -30 16
-30 20 0 12 -43 53 -110 104 -36 27 -90 74 -120 105 -30 31 -71 70 -90 86 -41
35 -120 129 -120 143 0 9 -82 125 -105 148 -6 6 -21 33 -34 60 -13 27 -32 66
-42 86 -11 20 -19 44 -19 52 0 9 -4 16 -10 16 -5 0 -10 6 -10 14 0 7 -14 30
-30 51 -17 21 -30 44 -30 51 0 13 -68 144 -80 154 -6 5 -30 58 -30 65 0 3 13
5 29 5 33 0 147 46 173 70 9 8 32 23 51 34 34 18 35 18 56 -3 12 -12 28 -21
36 -21 16 0 31 -6 80 -34 99 -56 249 -102 514 -157 52 -11 107 -27 123 -35 25
-13 76 -22 272 -51 22 -3 46 -12 54 -19 9 -10 39 -14 92 -14 43 0 102 -5 132
-11 29 -5 85 -16 123 -24 39 -7 96 -16 127 -19 32 -4 83 -13 115 -22 32 -9 74
-20 93 -24 54 -12 103 -33 122 -52 10 -10 27 -18 38 -18 11 0 20 -4 20 -10 0
-5 12 -13 27 -16 15 -4 36 -16 47 -26 11 -10 34 -18 50 -18 17 -1 49 -7 71
-15 22 -8 58 -15 80 -15 47 0 286 -37 331 -50 17 -6 51 -10 77 -10 25 0 49 -4
52 -10 4 -6 54 -10 116 -10 61 0 119 -5 129 -10 11 -6 52 -13 93 -16 79 -7
149 5 223 38 23 10 55 20 71 22 15 2 90 34 166 70 76 36 148 66 161 66 13 0
46 7 72 15 27 8 68 19 92 25 23 6 42 15 42 20 0 6 7 10 15 10 8 0 50 18 92 40
43 22 92 40 108 40 17 0 39 6 50 14 11 7 47 16 80 20 33 4 101 15 150 26 50
11 144 29 210 41 66 11 136 27 155 34 19 7 85 31 146 53 110 39 164 66 164 83
0 5 7 9 14 9 8 0 27 11 42 25 15 14 30 25 34 25 4 0 20 11 36 25 16 14 40 28
54 32 14 3 32 11 40 19 22 19 103 64 116 64 5 0 19 -7 30 -15z"/>
</g>
</svg>
